<svg viewBox="0 0 34 27" stroke="none" xmlns="http://www.w3.org/2000/svg">
    <path
        d="M5.1 0.578857V22.9622C5.1 23.3379 4.95074 23.6982 4.68507 23.9639C4.41939 24.2296 4.05906 24.3789 3.68333 24.3789C3.30761 24.3789 2.94728 24.2296 2.6816 23.9639C2.41592 23.6982 2.26667 23.3379 2.26667 22.9622V6.24552H0V22.9622C0.00110612 23.9387 0.389526 24.875 1.08004 25.5655C1.77056 26.256 2.70679 26.6444 3.68333 26.6455H30.3167C31.2932 26.6444 32.2294 26.256 32.92 25.5655C33.6105 24.875 33.9989 23.9387 34 22.9622V0.578857H5.1ZM31.7333 22.9622C31.7329 23.3378 31.5835 23.6979 31.3179 23.9634C31.0523 24.229 30.6923 24.3784 30.3167 24.3789H7.08333C7.27087 23.9301 7.36719 23.4485 7.36667 22.9622V2.84552H31.7333V22.9622Z" />
    <path d="M19.8338 5.1123H9.63379V16.4456H19.8338V5.1123ZM17.5671 14.179H11.9005V7.37897H17.5671V14.179Z" />
    <path d="M29.4663 5.1123H22.0996V7.37897H29.4663V5.1123Z" />
    <path d="M29.4663 9.64551H22.0996V11.9122H29.4663V9.64551Z" />
    <path d="M29.4663 14.179H22.0996V16.4456H29.4663V14.179Z" />
</svg>