<svg viewBox="0 0 34 34" stroke="none" xmlns="http://www.w3.org/2000/svg">
    <path fill-rule="evenodd" clip-rule="evenodd"
        d="M10.2642 7.05667C10.2642 5.29252 11.703 3.84912 13.4617 3.84912H19.8567C21.6153 3.84912 23.0542 5.29252 23.0542 7.05667V10.2642H29.1615C29.3213 10.2642 29.4492 10.3604 29.4492 10.5529V18.2831L29.4173 19.8869H19.1853V17.9623H15.3483V19.8869H3.86914V10.5529C3.86914 10.3925 3.96507 10.2642 4.15692 10.2642H10.2642V7.05667ZM19.8567 7.05667H13.4617V10.2642H19.8567V7.05667Z"
        fill="#33FF00" />
    <path
        d="M15.3483 22.8057H3.86914V29.2208C3.86914 29.3812 3.99704 29.5095 4.15692 29.5095H29.1295C29.2894 29.5095 29.4173 29.3812 29.4173 29.2208V22.8057H19.1853V24.3774H15.3483V22.8057Z"
        fill="#33FF00" />
</svg>