<svg stroke="none" xmlns="http://www.w3.org/2000/svg">
   <symbol id="1" viewBox="0 0 24 24">
      <path
         d="M13.723 18.654l-3.61 3.609c-2.316 2.315-6.063 2.315-8.378 0-1.12-1.118-1.735-2.606-1.735-4.188 0-1.582.615-3.07 1.734-4.189l4.866-4.865c2.355-2.355 6.114-2.262 8.377 0 .453.453.81.973 1.089 1.527l-1.593 1.592c-.18-.613-.5-1.189-.964-1.652-1.448-1.448-3.93-1.51-5.439-.001l-.001.002-4.867 4.865c-1.5 1.499-1.5 3.941 0 5.44 1.517 1.517 3.958 1.488 5.442 0l2.425-2.424c.993.284 1.791.335 2.654.284zm.161-16.918l-3.574 3.576c.847-.05 1.655 0 2.653.283l2.393-2.389c1.498-1.502 3.94-1.5 5.44-.001 1.517 1.518 1.486 3.959 0 5.442l-4.831 4.831-.003.002c-1.438 1.437-3.886 1.552-5.439-.002-.473-.474-.785-1.042-.956-1.643l-.084.068-1.517 1.515c.28.556.635 1.075 1.088 1.528 2.245 2.245 6.004 2.374 8.378 0l4.832-4.831c2.314-2.316 2.316-6.062-.001-8.377-2.317-2.321-6.067-2.313-8.379-.002z" />
   </symbol>
   <symbol id="2" viewBox="0 0 35 17">
      <path
         d="M2.33333 8.16667C2.33509 6.62011 2.95024 5.1374 4.04382 4.04382C5.1374 2.95023 6.62011 2.33509 8.16667 2.33333H16.3333V0H8.16667C6.00073 0 3.92351 0.860415 2.39196 2.39196C0.860414 3.92351 0 6.00073 0 8.16667C0 10.3326 0.860414 12.4098 2.39196 13.9414C3.92351 15.4729 6.00073 16.3333 8.16667 16.3333H16.3333V14H8.16667C6.62011 13.9982 5.1374 13.3831 4.04382 12.2895C2.95024 11.1959 2.33509 9.71322 2.33333 8.16667Z" />
      <path
         d="M26.8337 0H18.667V2.33333H26.8337C28.3808 2.33333 29.8645 2.94792 30.9584 4.04188C32.0524 5.13584 32.667 6.61957 32.667 8.16667C32.667 9.71376 32.0524 11.1975 30.9584 12.2915C29.8645 13.3854 28.3808 14 26.8337 14H18.667V16.3333H26.8337C28.9996 16.3333 31.0768 15.4729 32.6084 13.9414C34.1399 12.4098 35.0003 10.3326 35.0003 8.16667C35.0003 6.00073 34.1399 3.92351 32.6084 2.39196C31.0768 0.860415 28.9996 0 26.8337 0Z" />
      <path d="M25.9587 7.04761H9.04199V9.38094H25.9587V7.04761Z" />
   </symbol>
   <symbol id="3" viewBox="0 0 24 24" fill-rule="evenodd" clip-rule="evenodd">
      <path
         d="M14 4h-13v18h20v-11h1v12h-22v-20h14v1zm10 5h-1v-6.293l-11.646 11.647-.708-.708 11.647-11.646h-6.293v-1h8v8z" />
   </symbol>
   <symbol id="4" viewBox="0 0 16 16" aria-hidden="true" fill-rule="evenodd">
      <path
         d="M7.775 3.275a.75.75 0 001.06 1.06l1.25-1.25a2 2 0 112.83 2.83l-2.5 2.5a2 2 0 01-2.83 0 .75.75 0 00-1.06 1.06 3.5 3.5 0 004.95 0l2.5-2.5a3.5 3.5 0 00-4.95-4.95l-1.25 1.25zm-4.69 9.64a2 2 0 010-2.83l2.5-2.5a2 2 0 012.83 0 .75.75 0 001.06-1.06 3.5 3.5 0 00-4.95 0l-2.5 2.5a3.5 3.5 0 004.95 4.95l1.25-1.25a.75.75 0 00-1.06-1.06l-1.25 1.25a2 2 0 01-2.83 0z" />
   </symbol>
   <use href="#1" />
</svg>