<svg viewBox="0 0 35 34" stroke="none" xmlns="http://www.w3.org/2000/svg">
    <path
        d="M7.87872 34H0.829792V11.3001H7.87872V34ZM4.35001 8.20371C2.09629 8.20371 0.267578 6.33614 0.267578 4.08243C0.267578 1.82871 2.09508 0 4.35001 0C6.60494 0 8.43244 1.8275 8.43244 4.08243C8.43244 6.33614 6.60372 8.20371 4.35001 8.20371ZM34.2603 34H27.2271V22.95C27.2271 20.3162 27.1737 16.9393 23.5624 16.9393C19.8977 16.9393 19.3355 19.8001 19.3355 22.7606V34H12.2939V11.3001H19.0538V14.3966H19.1521C20.0932 12.6128 22.3919 10.7306 25.821 10.7306C32.9549 10.7306 34.2664 15.4287 34.2664 21.5305V34H34.2603Z"
        fill="#33FF00" />
</svg>