<svg viewBox="0 0 36 35" stroke="none" xmlns="http://www.w3.org/2000/svg">
    <path
        d="M22.0301 17.6855L21.8451 17.8476L21.7564 18.0771C21.188 19.5476 21.2802 20.6867 21.7988 21.5098C22.2788 22.2715 22.9925 22.5464 23.2588 22.6198C25.9374 23.3764 28.7487 24.4585 30.8676 25.6913C31.9298 26.3093 32.7745 26.9403 33.3417 27.5533C33.9161 28.1741 34.1192 28.6797 34.1192 29.0678V29.0723V29.0768V29.0813V29.0858V29.0902V29.0946V29.0989V29.1033V29.1076V29.1119V29.1161V29.1203V29.1245V29.1287V29.1329V29.137V29.1411V29.1451V29.1492V29.1532V29.1572V29.1611V29.1651V29.169V29.1729V29.1767V29.1805V29.1843V29.1881V29.1919V29.1956V29.1993V29.203V29.2067V29.2103V29.2139V29.2175V29.221V29.2246V29.2281V29.2316V29.235V29.2384V29.2419V29.2453V29.2486V29.252V29.2553V29.2586V29.2618V29.2651V29.2683V29.2715V29.2747V29.2779V29.281V29.2841V29.2872V29.2903V29.2933V29.2964V29.2994V29.3024V29.3053V29.3083V29.3112V29.3141V29.317V29.3198V29.3226V29.3255V29.3283V29.331V29.3338V29.3365V29.3392V29.3419V29.3446V29.3472V29.3499V29.3525V29.3551V29.3577V29.3602V29.3628V29.3653V29.3678V29.3703V29.3727V29.3752V29.3776V29.38V29.3824V29.3848V29.3871V29.3894V29.3918V29.3941V29.3963V29.3986V29.4008V29.4031V29.4053V29.4075V29.4097V29.4118V29.414V29.4161V29.4182V29.4203V29.4224V29.4244V29.4265V29.4285V29.4305V29.4325V29.4345V29.4365V29.4384V29.4404V29.4423V29.4442V29.4461V29.448V29.4498V29.4517V29.4535V29.4553V29.4571V29.4589V29.4607V29.4625V29.4642V29.4659V29.4677V29.4694V29.4711V29.4727V29.4744V29.4761V29.4777V29.4793V29.481V29.4826V29.4842V29.4857V29.4873V29.4889V29.4904V29.4919V29.4935V29.495V29.4965V29.4979V29.4994V29.5009V29.5023V29.5038V29.5052V29.5066V29.508V29.5094V29.5108V29.5122V29.5136V29.5149V29.5163V29.5176V29.5189V29.5202V29.5215V29.5228V29.5241V29.5254V29.5267V29.5279V29.5292V29.5304V29.5317V29.5329V29.5341V29.5353V29.5365V29.5377V29.5389V29.5401V29.5412V29.5424V29.5436V29.5447V29.5458V29.547V29.5481V29.5492V29.5503V29.5514V29.5525V29.5536V29.5547V29.5558V29.5569V29.5579V29.559V29.56V29.5611V29.5621V29.5632V29.5642V29.5652V29.5662V29.5673V29.5683V29.5693V29.5703V29.5713V29.5723V29.5732V29.5742V29.5752V29.5762V29.5772V29.5781V29.5791V29.58V29.581V29.5819V29.5829V29.5838V29.5848V29.5857V29.5867V29.5876V29.5885V29.5895V29.5904V29.5913V29.5922V29.5931V29.5941V29.595V29.5959V29.5968V29.5977V29.5986V29.5995V29.6004V29.6013V29.6022V29.6031V29.604V29.605V29.6059V29.6068V29.6077V29.6086V29.6095V29.6104V29.6113V29.6122V29.6131V29.614V29.6149V29.6158V29.6167V29.6176V29.6185V29.6194V29.6203V29.6212V29.6221V29.623V29.6239V29.6249V29.6258V29.6267V29.6276V29.6285V29.6295V29.6304V29.6313V29.6323V29.6332V29.6341V29.6351V29.636V29.637V29.6379V29.6389V29.6398V29.6408V29.6418V29.6427V29.6437V29.6447V29.6457V29.6467V29.6476V29.6486V29.6496V29.6506V29.6517V29.6527V29.6537V29.6547V29.6558V29.6568V29.6578V29.6589V29.6599V29.661V29.6621V29.6631V29.6642V29.6653V29.6664V29.6675V29.6686V29.6697V29.6708V29.6719V29.6731V29.6742V29.6754V29.6765V29.6777V29.6788V29.68V29.6812V29.6824V29.6836V29.6848V29.686V29.6872V29.6885V29.6897V29.691V29.6922V29.6935V29.6948V29.6961V29.6974V29.6987V29.7V29.7013V29.7027V29.704V29.7054V29.7067V29.7081V29.7095V29.7109V29.7123V29.7137V29.7151V29.7166V29.718V29.7195V29.721V29.7225V29.7239V29.7255V29.727V29.7285V29.7301V29.7316V29.7332V29.7348V29.7363V29.7379V29.7396V29.7412V29.7428V29.7445V29.7462V29.7478V29.7495V29.7512V29.753V29.7547V29.7565V29.7582V29.76V29.7618V29.7636V29.7654V29.7672V29.7691V29.771V29.7728V29.7747V29.7766V29.7786V29.7805V29.7824V29.7844V29.7864V29.7884V29.7904V29.7924V29.7945V29.7965V29.7986V29.8007V29.8028V29.805V29.8071V29.8093V29.8114V29.8136V29.8158V29.8181V29.8203V29.8226V29.8249V29.8272V29.8295V29.8318V29.8342V29.8365V29.8389V29.8413V29.8437V29.8462V29.8487V29.8511V29.8536V29.8561V29.8587V29.8612V29.8638V29.8664V29.869V29.8717V29.8743V29.877V29.8797V29.8824V29.8851V29.8879V29.8907V29.8934V29.8963V29.8991V29.902V29.9048V29.9077V29.9107V29.9136V29.9166V29.9195V29.9225V29.9256V29.9286V29.9317V29.9348V29.9379V29.941V29.9442V29.9474V29.9506V29.9538V29.9571V29.9603V29.9636V29.9669V29.9703V29.9737V29.977V29.9805V29.9839V29.9874V29.9908V29.9944V29.9979V30.0014V30.005V30.0086V30.0123V30.0159V30.0196V30.0233V30.027V30.0308V30.0346V30.0384V30.0422V30.0461V30.0499V30.0538V30.0578V30.0617V30.0657V30.0697V30.0738V30.0778V30.0819V30.0861V30.0902V30.0944V30.0986V30.1028V30.1071V30.1113V30.1156V30.12V30.1243V30.1287V30.1332V30.1376V30.1421V30.1466V30.1511C34.1192 30.6866 33.8427 31.2061 33.0566 31.7286C32.2502 32.2646 31.0274 32.7117 29.4532 33.0587C26.3194 33.7493 22.1283 33.974 17.9996 33.974C13.8774 33.974 9.66087 33.7494 6.50007 33.0583C4.9122 32.7111 3.67497 32.2634 2.85777 31.7259C2.05929 31.2008 1.78223 30.681 1.78223 30.1511V30.1466V30.1421V30.1376V30.1332V30.1287V30.1243V30.12V30.1156V30.1113V30.1071V30.1028V30.0986V30.0944V30.0902V30.0861V30.0819V30.0778V30.0738V30.0697V30.0657V30.0617V30.0578V30.0538V30.0499V30.0461V30.0422V30.0384V30.0346V30.0308V30.027V30.0233V30.0196V30.0159V30.0123V30.0086V30.005V30.0014V29.9979V29.9944V29.9908V29.9874V29.9839V29.9805V29.977V29.9737V29.9703V29.9669V29.9636V29.9603V29.9571V29.9538V29.9506V29.9474V29.9442V29.941V29.9379V29.9348V29.9317V29.9286V29.9256V29.9225V29.9195V29.9166V29.9136V29.9107V29.9077V29.9048V29.902V29.8991V29.8963V29.8934V29.8907V29.8879V29.8851V29.8824V29.8797V29.877V29.8743V29.8717V29.869V29.8664V29.8638V29.8612V29.8587V29.8561V29.8536V29.8511V29.8487V29.8462V29.8437V29.8413V29.8389V29.8365V29.8342V29.8318V29.8295V29.8272V29.8249V29.8226V29.8203V29.8181V29.8158V29.8136V29.8114V29.8093V29.8071V29.805V29.8028V29.8007V29.7986V29.7965V29.7945V29.7924V29.7904V29.7884V29.7864V29.7844V29.7824V29.7805V29.7786V29.7766V29.7747V29.7728V29.771V29.7691V29.7672V29.7654V29.7636V29.7618V29.76V29.7582V29.7565V29.7547V29.753V29.7512V29.7495V29.7478V29.7462V29.7445V29.7428V29.7412V29.7396V29.7379V29.7363V29.7348V29.7332V29.7316V29.7301V29.7285V29.727V29.7255V29.7239V29.7225V29.721V29.7195V29.718V29.7166V29.7151V29.7137V29.7123V29.7109V29.7095V29.7081V29.7067V29.7054V29.704V29.7027V29.7013V29.7V29.6987V29.6974V29.6961V29.6948V29.6935V29.6922V29.691V29.6897V29.6885V29.6872V29.686V29.6848V29.6836V29.6824V29.6812V29.68V29.6788V29.6777V29.6765V29.6754V29.6742V29.6731V29.6719V29.6708V29.6697V29.6686V29.6675V29.6664V29.6653V29.6642V29.6631V29.6621V29.661V29.6599V29.6589V29.6578V29.6568V29.6558V29.6547V29.6537V29.6527V29.6517V29.6506V29.6496V29.6486V29.6476V29.6467V29.6457V29.6447V29.6437V29.6427V29.6418V29.6408V29.6398V29.6389V29.6379V29.637V29.636V29.6351V29.6341V29.6332V29.6323V29.6313V29.6304V29.6295V29.6285V29.6276V29.6267V29.6258V29.6249V29.6239V29.623V29.6221V29.6212V29.6203V29.6194V29.6185V29.6176V29.6167V29.6158V29.6149V29.614V29.6131V29.6122V29.6113V29.6104V29.6095V29.6086V29.6077V29.6068V29.6059V29.605V29.604V29.6031V29.6022V29.6013V29.6004V29.5995V29.5986V29.5977V29.5968V29.5959V29.595V29.5941V29.5931V29.5922V29.5913V29.5904V29.5895V29.5885V29.5876V29.5867V29.5857V29.5848V29.5838V29.5829V29.5819V29.581V29.58V29.5791V29.5781V29.5772V29.5762V29.5752V29.5742V29.5732V29.5723V29.5713V29.5703V29.5693V29.5683V29.5673V29.5662V29.5652V29.5642V29.5632V29.5621V29.5611V29.56V29.559V29.5579V29.5569V29.5558V29.5547V29.5536V29.5525V29.5514V29.5503V29.5492V29.5481V29.547V29.5458V29.5447V29.5436V29.5424V29.5412V29.5401V29.5389V29.5377V29.5365V29.5353V29.5341V29.5329V29.5317V29.5304V29.5292V29.5279V29.5267V29.5254V29.5241V29.5228V29.5215V29.5202V29.5189V29.5176V29.5163V29.5149V29.5136V29.5122V29.5108V29.5094V29.508V29.5066V29.5052V29.5038V29.5023V29.5009V29.4994V29.4979V29.4965V29.495V29.4935V29.4919V29.4904V29.4889V29.4873V29.4857V29.4842V29.4826V29.481V29.4793V29.4777V29.4761V29.4744V29.4727V29.4711V29.4694V29.4677V29.4659V29.4642V29.4625V29.4607V29.4589V29.4571V29.4553V29.4535V29.4517V29.4498V29.448V29.4461V29.4442V29.4423V29.4404V29.4384V29.4365V29.4345V29.4325V29.4305V29.4285V29.4265V29.4244V29.4224V29.4203V29.4182V29.4161V29.414V29.4118V29.4097V29.4075V29.4053V29.4031V29.4008V29.3986V29.3963V29.3941V29.3918V29.3894V29.3871V29.3848V29.3824V29.38V29.3776V29.3752V29.3727V29.3703V29.3678V29.3653V29.3628V29.3602V29.3577V29.3551V29.3525V29.3499V29.3472V29.3446V29.3419V29.3392V29.3365V29.3338V29.331V29.3283V29.3255V29.3226V29.3198V29.317V29.3141V29.3112V29.3083V29.3053V29.3024V29.2994V29.2964V29.2933V29.2903V29.2872V29.2841V29.281V29.2779V29.2747V29.2715V29.2683V29.2651V29.2618V29.2586V29.2553V29.252V29.2486V29.2453V29.2419V29.2384V29.235V29.2316V29.2281V29.2246V29.221V29.2175V29.2139V29.2103V29.2067V29.203V29.1993V29.1956V29.1919V29.1881V29.1843V29.1805V29.1767V29.1729V29.169V29.1651V29.1611V29.1572V29.1532V29.1492V29.1451V29.1411V29.137V29.1329V29.1287V29.1245V29.1203V29.1161V29.1119V29.1076V29.1033V29.0989V29.0946V29.0902V29.0858V29.0813V29.0768V29.0723V29.0678C1.78223 28.706 1.97777 28.2155 2.55029 27.5979C3.11307 26.9909 3.94898 26.3619 4.99403 25.7415C7.07895 24.5038 9.82472 23.4004 12.3809 22.6122C12.6926 22.5165 13.4524 22.1847 13.9922 21.4518C14.5973 20.6304 14.8014 19.4734 14.1681 18.0558L14.078 17.8541L13.9114 17.7092C11.5132 15.6227 9.7306 12.2543 9.7306 9.0105C9.7306 6.55773 10.6706 4.75812 12.1164 3.55442C13.5845 2.33219 15.6477 1.66675 17.9507 1.66675C20.2539 1.66675 22.3239 2.33231 23.7986 3.55556C25.2508 4.76014 26.1953 6.55974 26.1953 9.0105C26.1953 12.2376 24.4135 15.597 22.0301 17.6855Z"
        stroke-width="4" />
</svg>