<svg viewBox="0 0 35 45" stroke="none" xmlns="http://www.w3.org/2000/svg">
    <path fill-rule="evenodd" clip-rule="evenodd"
        d="M9.5 2.5V0.5H17.5H25.5V2.5V4H34.5V24.5V45H17.5H0.5V24.5V4H9.5V2.5ZM11.5 2V6.5H23.5V2H11.5ZM3.5 6V24V42H17.5H31.5V24V6H25.5V8H23V8.5H12V8H9.5V6H3.5Z" />
    <path
        d="M15 15C14.5 16 14.7 17.6999 15.4 18.7999C16.4819 20.5 16.56 21.47 15.5 22C14.8 22.35 13.7 22.4999 13.3 22.4999C12.8 22.4999 12.5 24.4999 12.5 24.4999C12.5 24.4999 14.8 24.4999 17.5 24.4999C20.3 24.4999 22.5 24.5 22.5 24.5C22.5 23.9 22.4 22.4999 22 22.4999C18.5 22.5 18.1 21.2001 19.5 18.5C20.2 16.7 20.1667 15.5 19.5 14.5C18.5 13 15.7803 13.4394 15 15Z" />
    <path d="M9.5 28.5V30.5H25.5V28.5H17.5H9.5Z" />
    <path d="M9.5 33.5001V35.5H22.5V33.5001H9.5Z" />
</svg>